PathFileType	4	(X/Y/Z)	Apose_0-50.trc
DataRate	CameraRate	NumFrames	NumMarkers	Units	OrigDataRate	OrigDataStartFrame	OrigNumFrames
30	30	9	22	m	30	10	50
Frame#	Time	Hip			RHip			RKnee			RAnkle			RBigToe			RSmallToe			RHeel			LHip			LKnee			LAnkle			LBigToe			LSmallToe			LHeel			Neck			Head			Nose			RShoulder			RElbow			RWrist			LShoulder			LElbow			LWrist		
		X1	Y1	Z1	X2	Y2	Z2	X3	Y3	Z3	X4	Y4	Z4	X5	Y5	Z5	X6	Y6	Z6	X7	Y7	Z7	X8	Y8	Z8	X9	Y9	Z9	X10	Y10	Z10	X11	Y11	Z11	X12	Y12	Z12	X13	Y13	Z13	X14	Y14	Z14	X15	Y15	Z15	X16	Y16	Z16	X17	Y17	Z17	X18	Y18	Z18	X19	Y19	Z19	X20	Y20	Z20	X21	Y21	Z21	X22	Y22	Z22
11	0.3666666666666666	0.038203017981652446	0.9186090057592229	0.3603833968499005	0.029048371140905166	0.8948628230938225	0.4760971709825799	0.00384770519658432	0.5031187716510501	0.5013305374550064	-0.012118020830978042	0.10159011296897376	0.517215712902363	0.2073796191474708	0.0394985558702104	0.5661388182589104	0.15284724562953939	0.029842341265357796	0.6149841814024599	-0.04974680714651006	0.03176680057215218	0.5004389589032653	0.029244199424826717	0.8936467350848465	0.24786743364855282	0.017045817339783227	0.5051539827941428	0.2224901586867275	0.0016748846641667873	0.11709825186597064	0.21221162523492382	0.21604828799584877	0.04229895899820367	0.17999224533882832	0.16591777555937526	0.04084858285571717	0.12731788386602566	-0.03079474404042023	0.03695907530034782	0.22145326749450947	0.07381309469903016	1.5662140641516173	0.3528258500553807	0.3128896176318032	1.7673062947532894	0.29888149527311475	0.33136640049415345	1.6083785507988155	0.3516541853809594	0.033978676925775234	1.4921212418729162	0.543630160990738	0.07710959630053088	1.2340484240856524	0.7234160618367537	0.1252705781230794	1.046254707933249	0.8979826223628198	0.020502774489181374	1.4759197871925196	0.15096676044877466	0.012046594301236824	1.2271508325329767	0.006271640713383329	0.05899951774693859	1.0094613631712812	-0.14395645947957078
12	0.4	0.03737507485542335	0.9190529211005186	0.36021571745525166	0.028633295414813232	0.8947435424590692	0.4758426517710518	0.002600571670836891	0.5043213255158532	0.5013935599200008	-0.012010570556748793	0.10287367340169301	0.5164796935596426	0.20675739163630688	0.039458054627741324	0.5659290738024311	0.15269428058274007	0.0298806964728127	0.6143561479149791	-0.05157170284103951	0.0315511863535301	0.5017328157324679	0.029571691798209836	0.8934299895458617	0.2477478767313104	0.017253228238255498	0.5038466196830904	0.2218111365448653	0.0017357728860595166	0.11646755332927958	0.2119467554648017	0.2155669277812558	0.04206534163293566	0.18001104181959118	0.1653665806683348	0.04043280204085145	0.1269349537983058	-0.031367502738584865	0.03614356732674642	0.22080218923909825	0.07350784147783657	1.5671006726423165	0.3517893253773061	0.30684636883658756	1.7653147544186878	0.29672589944239647	0.33099403946000694	1.6087265175647865	0.35073943996852786	0.033672853690238265	1.4921285870867973	0.5435685226848787	0.0770747045039829	1.2358939998137075	0.7229803466488369	0.1236558574713447	1.0466775239326553	0.896543970383468	0.02100971769300106	1.475260439874751	0.14998847992535824	0.01358619327615547	1.226271429820099	0.00602844492271753	0.06216860634712238	1.009769474694551	-0.14306362149691826
13	0.4333333333333333	0.036694204135188195	0.9194240180283936	0.3600297725800581	0.028628735264372915	0.8940569282578185	0.47522354125562905	0.0014401946832988083	0.5053490294455679	0.5016114328347997	-0.012033584931922813	0.10465775251631058	0.5156547522878122	0.206129338442477	0.03940432396616013	0.5656653655157311	0.1525783509112184	0.0301164964381287	0.613787912466419	-0.053530278101520244	0.031335474821072976	0.5030079089913078	0.03015454672391409	0.8926711404312253	0.247488506479393	0.017328981601717138	0.5012291748645987	0.2209396920790124	0.0021714476227783458	0.11494087735110398	0.21150613186762196	0.21509685828520447	0.04130707175072606	0.18059176397940352	0.16474653363676955	0.0397370882912882	0.12701576334838813	-0.031849097228112425	0.0360096535571429	0.2208024869673561	0.07193851423361086	1.5670715838373501	0.3517566444250527	0.30097631701559036	1.7632564235552235	0.2945387107531992	0.3313771010143004	1.6090058973871466	0.3494442371651969	0.033249770469726984	1.4920353550251708	0.5436877776774867	0.07757062517300331	1.2379654014396748	0.7223878107053606	0.12233344873308594	1.046877210832029	0.8950712192965268	0.02131279892704906	1.4745472045239725	0.14878729841190552	0.015128160256062737	1.2255552329547281	0.005729604718389728	0.0653904743114467	1.010360809608521	-0.14196954956119237
14	0.4666666666666667	0.036354942470650894	0.9196694321257819	0.35981677203251733	0.029016722992393204	0.8931658673587002	0.47448218985301654	0.0006675021477740248	0.5059094108185647	0.5019114832744662	-0.012138483899307304	0.10656894522462279	0.5147713279258999	0.2057280895140816	0.03932130121981395	0.5653625056065379	0.1525053304260159	0.030413953052628354	0.6132821827666121	-0.05537347441588553	0.031098833185285276	0.5040066204376735	0.03079158840096166	0.8917853725178355	0.2471502184173307	0.01715943954159658	0.49829784528775695	0.2201986289482042	0.0029071975923115815	0.11300553765216452	0.21093231839954352	0.21467241633876893	0.04035427266808119	0.18159393830200624	0.1641979422574454	0.03911479406844091	0.12751303709431558	-0.03215897697009546	0.036393979028265855	0.22120026605014972	0.06974553511969833	1.5664117165396505	0.3523379402190987	0.2975012291831526	1.7616299233966475	0.2919580249960811	0.3321109130800667	1.6093128774437586	0.34790276265698	0.03268813380528957	1.491965282457679	0.5437632355459	0.07816225137687167	1.239851425864493	0.7216452339290627	0.12125914409127861	1.0467678412658052	0.8937718466642758	0.021372769520585467	1.4739433950038017	0.14752053082566569	0.01660452905890807	1.2250361305349118	0.005481751962091637	0.06853851446787768	1.0112436885517617	-0.14090430720513972
15	0.5	0.03650461924279537	0.9198221723965215	0.3596235584028023	0.02970772732922852	0.8925106201934023	0.4738947426738913	0.00041403010106139517	0.5060345100838959	0.5021982037646621	-0.012181187743728568	0.10805014165254928	0.5140347077872818	0.20565938885670387	0.03928536799659464	0.5650564940557947	0.15244825044631383	0.030683608357366575	0.6128637769044804	-0.0567565539545078	0.0308736972211186	0.504566985623331	0.03140099133969498	0.891197682112598	0.24684794383616682	0.016785650533000955	0.4963809724970397	0.21987056610889189	0.003863742404587548	0.11112484312103416	0.21023928042555806	0.21426438577595433	0.03957497061787795	0.18281478563224468	0.16383423688942594	0.03884147173516011	0.1282918384143376	-0.032260660255836626	0.03706573858156649	0.22167350192359198	0.06767345934326983	1.5655198013355858	0.35294549197386843	0.2957722763802975	1.7608060527079112	0.2895550025135421	0.33276376200217256	1.609804239675816	0.3463767548549578	0.031944499224007855	1.4919894857171303	0.5436136709875796	0.07844004009605696	1.2412538299828588	0.7208345019595448	0.12046253581760616	1.0463949001417958	0.8928124182092203	0.021208192547766815	1.4735653565447995	0.14638688893013033	0.018017060049532723	1.2247445197514604	0.005358487718748624	0.07159088616323533	1.0123688734471865	-0.14010734311664974
16	0.5333333333333333	0.03714381732605701	0.9199754928717108	0.3595152791731444	0.03059073393784151	0.8923688617691483	0.473615032224533	0.0006378518868240518	0.5059195742918772	0.502415403498753	-0.012098801203207651	0.10861935283465676	0.513677333904516	0.20582927988743327	0.03935714562267162	0.5647515023862415	0.15233407942755045	0.030925298189475307	0.6126110357450388	-0.057497601068605526	0.030672222359119563	0.5047689252626564	0.03199339428229143	0.8910942945586526	0.2466635961518721	0.016198807986783696	0.49632296808402177	0.22006988869096086	0.004859550157260954	0.1097434392862229	0.20950233229203652	0.21385279875796046	0.039203021425533294	0.18410364122063205	0.16369183191419576	0.03900127155113833	0.1292035187582286	-0.032160679271134945	0.03784794492432801	0.22197489010734922	0.06609822533585602	1.5645851554830408	0.35319334211315284	0.292551721575002	1.7610947713317326	0.28933091769581204	0.33308043362236367	1.6105566830102507	0.3451616263874471	0.031006077089677987	1.4921032002217687	0.5431798611928095	0.07825605843168851	1.2421519476195522	0.7200338594949095	0.12002301318611555	1.0458877693988753	0.8922714764644252	0.0208637550373357	1.4734638535167397	0.14550839689740214	0.019413187686732496	1.2247579163114013	0.005356042864634565	0.0744876362757752	1.013564964590414	-0.13973258053833817
17	0.5666666666666667	0.03811789906928819	0.9201934113732122	0.3595387249379983	0.03155634020907962	0.8927853923960188	0.47363625913339963	0.0011509159377422276	0.5057961276364231	0.5025392665249591	-0.01196934921564604	0.10803626355378312	0.5138205253217464	0.20603320799558597	0.039515034632868505	0.5644285651183374	0.15207804566473634	0.031169982469178317	0.6126127353452483	-0.05762534271391482	0.03043875164908887	0.5048251594775244	0.032581306255004286	0.8913952103208075	0.2466197677894615	0.015451944901578418	0.49806669291415356	0.2207041652180743	0.005650000137456281	0.10922270818163858	0.20889811840647854	0.21347651594346664	0.03926958769813146	0.18537028879125017	0.1637630904954828	0.039487028555829765	0.13012240647023185	-0.03193272693172852	0.03864935431833536	0.22203779312640606	0.06506817042183002	1.5636800164492837	0.35295836823596605	0.28575547587669015	1.762477978529306	0.2923818354606	0.33303313633455994	1.611545981099034	0.34447934430981614	0.029943743822946078	1.4922633699177297	0.5424975416465014	0.07769902122753551	1.2426528363072553	0.7193324891310532	0.1199712553589856	1.0453749091180151	0.8921156836304032	0.0203748979835346	1.4736267489450057	0.144934705339549	0.020782128399258082	1.2250931140456718	0.0053820404170365176	0.07714129444740198	1.0146466597099104	-0.1398265032821705
18	0.6	0.03920277981712494	0.9204535553042322	0.3596997526229983	0.03247976373505608	0.8936266569188421	0.47386520361205997	0.0017138712839794286	0.5058162132817335	0.5025404083010109	-0.011878299412635386	0.10639128718509845	0.5144400234179501	0.20612980374276366	0.03970893963528001	0.5640872086808785	0.15164210038152423	0.03142635265400854	0.6128791015279075	-0.05729213209470317	0.03013038159146883	0.5048346307667408	0.03313230342999914	0.8918920109473122	0.24668239455076107	0.014686031519314293	0.5009692307164857	0.2215862465957686	0.00604663389238573	0.10966240160385639	0.2086279128262786	0.213127991027888	0.0395955346114913	0.18657432799717508	0.1639798664620575	0.040042529483125	0.13093407318708578	-0.03172581543569463	0.039370904615016175	0.22195218537492697	0.06449564532093933	1.5628738603467554	0.3523137601975767	0.27572467525624134	1.7646301338164752	0.29812241931943484	0.3327465065118929	1.612679848292673	0.3443553761490632	0.028913033964000967	1.4924430590259317	0.5416424598383973	0.07690119423002027	1.2428718786519115	0.7188438645637479	0.12023330849114014	1.0449067805453565	0.8922368658088337	0.019764021539244437	1.473999390537792	0.1447312390021671	0.02207489934805907	1.2256392908977674	0.005305994866203551	0.07953653728202101	1.015518500489859	-0.1403861037501163
19	0.6333333333333333	0.04015946461055998	0.920676892417032	0.35992175763802364	0.033218681546261335	0.8946383640590658	0.47417880831048065	0.0021451779832120463	0.50596332061714	0.5023534741735104	-0.011800807154354383	0.10415666911444282	0.5153604281140872	0.20615720435988263	0.0399231264586647	0.5637318804929319	0.15102382260666122	0.03167743803746435	0.6133644920100836	-0.05667067046792824	0.02982248911213234	0.504737743893374	0.033558167578567784	0.8923774300135463	0.24674078662908763	0.014056853528688263	0.5041865224992428	0.2224988274359156	0.005944728724016869	0.11088076997775369	0.2087802360160955	0.21265730826824936	0.039837656014752004	0.18766465346243474	0.16414913718412924	0.04031542506480995	0.13149394985940954	-0.03174245255720836	0.03981614648091271	0.22184274140054444	0.06427530695098686	1.5622577847398025	0.35143592946358837	0.2642065143766671	1.767100796693401	0.30507422888324764	0.3323049750372207	1.6138179136670676	0.34459309673312055	0.028113773724901925	1.4926355302341	0.5407108904331557	0.07594060974940393	1.2428802429000523	0.7186495704807881	0.12065439669046744	1.044477067613766	0.8925085631731788	0.019061141999489852	1.4744836360193532	0.14498132867711858	0.023274291650636093	1.2262305446628154	0.005023322514598165	0.08174494760043446	1.0161497216611268	-0.14138625730129997
